<?xml version="1.0" encoding="utf-8"?>
<!-- Generator: Adobe Illustrator 15.0.0, SVG Export Plug-In . SVG Version: 6.00 Build 0)  -->
<!DOCTYPE svg PUBLIC "-//W3C//DTD SVG 1.1//EN" "http://www.w3.org/Graphics/SVG/1.1/DTD/svg11.dtd">
<svg version="1.1" id="Layer_1" xmlns="http://www.w3.org/2000/svg" xmlns:xlink="http://www.w3.org/1999/xlink" x="0px" y="0px"
	 width="181.152px" height="65.095px" viewBox="144.744 183.105 181.152 65.095"
	 enable-background="new 144.744 183.105 181.152 65.095" xml:space="preserve">
<g>
	<path fill="#C0311A" d="M299.609,220.219l-0.021-25.502c0-1.734,1.469-3.204,3.139-3.204h7.344c1.668,0,3.137,1.47,3.137,3.204
		v25.5h6.408v-24.898c0-5.207-4.34-9.546-9.545-9.546h-7.346c-5.206,0-9.612,4.339-9.545,9.546l0.008,24.9H299.609z M246.07,206.865
		c1.869,0.469,2.938,1.67,2.938,3.806c0,2.003-1.732,3.805-3.471,3.805h-14.696v5.741h14.696c5.406,0,9.881-4.339,9.881-9.546
		c0-4.539-3.473-8.21-7.744-9.345l-8.944-2.338c-1.535-0.399-2.67-1.734-2.67-3.671c0-2.003,1.734-3.806,3.471-3.806h13.886v-5.74
		H239.53c-5.408,0-9.879,4.339-9.879,9.546c0,4.673,3.471,8.211,7.742,9.347L246.07,206.865z M213.059,220.219v-25.502
		c0-1.734,1.469-3.204,3.138-3.204h10.003v-5.74h-10.003c-5.207,0-9.613,4.339-9.546,9.546v24.9H213.059L213.059,220.219z
		 M193.721,204.33v10.146h-9.813c-1.735,0-3.138-1.868-3.138-3.87c0-1.937,1.136-3.339,2.737-3.739L193.721,204.33z
		 M190.584,191.512c1.668,0,3.137,1.47,3.137,3.138v3.872l-11.615,2.736c-4.206,1.068-7.743,5.073-7.743,9.347
		c0,5.206,4.139,9.611,9.546,9.611h16.221v-24.966c0-5.207-4.339-9.479-9.545-9.479h-13.551v5.74H190.584z M151.152,191.512h9.745
		c1.736,0,3.205,1.47,3.205,3.204v12.75c0,3.806-3.205,7.009-7.009,7.009h-5.941V191.512z M170.511,195.318
		c0-5.207-4.339-9.546-9.613-9.546h-16.153v49.798h6.408v-15.354h5.941c7.342,0,13.417-6.074,13.417-13.417V195.318z"/>
	<path fill="#C0311A" d="M260.471,209.353v-14.019c0-5.207,4.283-9.563,9.49-9.563h10.534v5.791h-10.472
		c-1.668,0-3.145,1.435-3.145,3.171v15.287c0,2.402,2.002,4.472,4.407,4.472h4.805c2.404,0,4.406-2.068,4.406-4.472v-15.287
		c0-0.024-0.002-3.146-0.002-3.171h6.396v17.812c0,5.941-4.859,10.859-10.803,10.859h-4.805
		C265.344,220.234,260.471,215.294,260.471,209.353"/>
	<path fill="#717073" d="M318.914,234.994h-3.469v-0.117c0-1.414,0.629-2.057,1.754-2.057c1.15,0,1.715,0.576,1.715,2.057V234.994z
		 M320.076,235.582v-0.705c0-1.857-0.967-3.061-2.877-3.061c-1.871,0-2.902,1.188-2.902,3.061v1.176
		c0,2.436,1.463,3.141,2.967,3.141c0.877,0,1.6-0.08,2.344-0.223c0.209-0.039,0.262-0.131,0.262-0.301v-0.443
		c0-0.131-0.105-0.184-0.209-0.184h-0.066c-0.602,0.092-1.568,0.145-2.328,0.145c-1.203,0-1.818-0.576-1.818-2.135v-0.184h4.383
		C319.984,235.869,320.076,235.752,320.076,235.582 M311.222,239.692c0,0.719-0.342,1.137-1.832,1.137
		c-1.451,0-1.885-0.458-1.885-1.188v-0.119c0-0.682,0.264-1.008,0.643-1.334l1.479,0.379c1.178,0.301,1.598,0.51,1.598,1.021v0.104
		H311.222z M311.117,234.326c0,0.785-0.354,1.336-1.768,1.336c-1.504,0-1.766-0.76-1.766-1.336v-0.104c0-0.732,0.301-1.4,1.766-1.4
		c1.414,0,1.768,0.615,1.768,1.4V234.326z M312.515,232.533v-0.338c0-0.158-0.145-0.289-0.301-0.289h-2.865
		c-2.25,0-2.9,1.15-2.9,2.316v0.104c0,0.666,0.195,1.139,0.6,1.518c-0.365,0.209-0.535,0.588-0.535,0.939v0.014
		c0,0.406,0.184,0.84,0.602,1.021l0.092,0.039c-0.432,0.328-0.822,0.93-0.822,1.662v0.119c0,1.282,0.939,2.079,3.01,2.079
		c2.145,0,2.979-0.771,2.979-2.028v-0.104c0-1.23-1.229-1.598-2.51-1.924l-1.949-0.498c-0.303-0.078-0.406-0.195-0.406-0.418
		c0-0.195,0.104-0.34,0.326-0.443c0.381,0.156,0.826,0.262,1.52,0.262c2.016,0,2.902-0.797,2.902-2.236v-0.104
		c0-0.707-0.209-1.102-0.443-1.35l0.471-0.092C312.423,232.756,312.515,232.703,312.515,232.533 M302.98,238.11
		c-0.443,0.039-1.086,0.078-1.529,0.078c-1.297,0-1.703-0.799-1.703-2.225v-0.941c0-1.4,0.42-2.199,1.703-2.199
		c0.418,0,1.098,0.014,1.529,0.092V238.11z M304.13,238.67v-9.154c0-0.146-0.104-0.25-0.234-0.25h-0.666
		c-0.145,0-0.248,0.119-0.248,0.25v2.432c-0.512-0.092-1.125-0.131-1.531-0.131c-1.91,0-2.85,1.148-2.85,3.205v0.941
		c0,1.963,0.898,3.229,2.85,3.229c0.799,0,1.596-0.064,2.406-0.221C304.091,238.932,304.13,238.84,304.13,238.67 M295.446,234.994
		h-3.469v-0.117c0-1.414,0.629-2.057,1.754-2.057c1.152,0,1.715,0.576,1.715,2.057V234.994z M296.608,235.582v-0.705
		c0-1.857-0.967-3.061-2.877-3.061c-1.871,0-2.902,1.188-2.902,3.061v1.176c0,2.436,1.463,3.141,2.969,3.141
		c0.875,0,1.598-0.08,2.34-0.223c0.209-0.039,0.264-0.131,0.264-0.301v-0.443c0-0.131-0.105-0.184-0.209-0.184h-0.066
		c-0.6,0.092-1.568,0.145-2.328,0.145c-1.203,0-1.818-0.576-1.818-2.135v-0.184h4.383
		C296.517,235.869,296.608,235.752,296.608,235.582 M288.499,238.84v-9.324c0-0.146-0.104-0.25-0.236-0.25h-0.678
		c-0.145,0-0.234,0.119-0.234,0.25v9.324c0,0.143,0.104,0.262,0.234,0.262h0.678C288.407,239.102,288.499,238.971,288.499,238.84
		 M285.177,232.17c0-0.133-0.104-0.264-0.248-0.264h-0.707c-0.115,0-0.209,0.105-0.223,0.211l-1.084,5.963
		c-0.027,0.158-0.064,0.158-0.104,0.158s-0.078-0.039-0.105-0.158l-1.283-5.021c-0.076-0.287-0.246-0.393-0.521-0.393h-0.732
		c-0.273,0-0.443,0.105-0.521,0.393l-1.281,5.021c-0.027,0.119-0.066,0.158-0.105,0.158s-0.078,0-0.104-0.158l-1.086-5.963
		c-0.014-0.104-0.105-0.211-0.223-0.211h-0.707c-0.145,0-0.248,0.131-0.248,0.264v0.053l1.27,6.068c0.17,0.811,0.313,0.9,1.098,0.9
		c0.682,0,0.877-0.182,1.074-0.939l1.137-4.449c0.027-0.092,0.027-0.092,0.066-0.092s0.039,0,0.064,0.092l1.139,4.449
		c0.209,0.822,0.393,0.939,1.072,0.939c0.785,0,0.93-0.078,1.1-0.9l1.27-6.068v-0.053H285.177z M273.157,236.002
		c0,1.348-0.551,2.186-1.768,2.186c-1.231,0-1.755-0.852-1.755-2.186v-0.994c0-1.35,0.535-2.188,1.755-2.188
		c1.23,0,1.768,0.852,1.768,2.188V236.002z M274.306,236.002v-0.994c0-1.924-0.99-3.191-2.914-3.191
		c-1.927,0-2.905,1.268-2.905,3.191v0.994c0,1.924,0.979,3.189,2.905,3.189C273.315,239.192,274.306,237.926,274.306,236.002
		 M266.287,238.84v-4.305c0-1.74-0.705-2.719-2.275-2.719c-0.771,0-1.359,0.195-2.082,0.602v-0.248c0-0.145-0.104-0.264-0.246-0.264
		h-0.652c-0.146,0-0.248,0.119-0.248,0.264v6.67c0,0.143,0.117,0.262,0.248,0.262h0.639c0.145,0,0.262-0.131,0.262-0.262v-5.52
		c0.604-0.303,1.219-0.512,1.768-0.512c0.996,0,1.439,0.404,1.439,1.727v4.305c0,0.143,0.117,0.262,0.262,0.262h0.627
		C266.17,239.102,266.287,238.983,266.287,238.84 M258.779,238.932c0-0.039-0.014-0.092-0.039-0.119l-2.904-3.504l2.877-3.113
		c0.039-0.039,0.066-0.09,0.066-0.143c0-0.078-0.066-0.146-0.197-0.146h-0.916c-0.131,0-0.184,0.027-0.26,0.119l-2.617,2.943v-5.441
		c0-0.145-0.117-0.262-0.262-0.262H253.9c-0.143,0-0.262,0.117-0.262,0.262v9.311c0,0.145,0.119,0.262,0.262,0.262h0.627
		c0.145,0,0.262-0.117,0.262-0.262v-3.125l2.604,3.217c0.104,0.131,0.156,0.17,0.301,0.17h0.941
		C258.727,239.102,258.779,239.024,258.779,238.932 M246.367,234.994h-3.469v-0.117c0-1.414,0.629-2.057,1.754-2.057
		c1.152,0,1.715,0.576,1.715,2.057V234.994z M247.529,235.582v-0.705c0-1.857-0.967-3.061-2.877-3.061
		c-1.871,0-2.903,1.188-2.903,3.061v1.176c0,2.436,1.464,3.141,2.968,3.141c0.877,0,1.6-0.08,2.344-0.223
		c0.209-0.039,0.262-0.131,0.262-0.301v-0.443c0-0.131-0.105-0.184-0.209-0.184h-0.066c-0.6,0.092-1.568,0.145-2.328,0.145
		c-1.203,0-1.818-0.576-1.818-2.135v-0.184h4.383C247.438,235.869,247.529,235.752,247.529,235.582 M240.112,238.905v-0.457
		c0-0.129-0.092-0.182-0.275-0.182h-0.73c-0.523,0-0.707-0.105-0.707-0.824v-4.566h1.412c0.145,0,0.262-0.117,0.262-0.262v-0.443
		c0-0.145-0.117-0.262-0.262-0.262h-1.412v-1.426c0-0.131-0.092-0.223-0.195-0.223h-0.041l-0.678,0.104
		c-0.145,0.027-0.236,0.131-0.236,0.262v1.281h-1.268c-0.146,0-0.248,0.092-0.248,0.236v0.352c0,0.146,0.104,0.225,0.248,0.236
		l1.268,0.143v4.566c0,1.438,0.576,1.752,1.777,1.752c0.25,0,0.59-0.025,0.852-0.064
		C240.046,239.102,240.112,239.024,240.112,238.905 M233.024,237.729c-0.629,0.34-1.165,0.523-1.768,0.523
		c-0.759,0-1.204-0.248-1.204-1.191v-0.156c0-0.93,0.419-1.283,2.002-1.283h0.97V237.729z M234.173,238.84v-4.564
		c0-1.545-0.73-2.459-2.55-2.459c-0.891,0-1.492,0.078-2.027,0.17c-0.183,0.027-0.274,0.104-0.274,0.248v0.457
		c0,0.17,0.117,0.209,0.235,0.209h0.065c0.522-0.051,1.15-0.104,2.001-0.104c1.021,0,1.401,0.381,1.401,1.479v0.523h-0.97
		c-2.329,0-3.151,0.705-3.151,2.117v0.158c0,1.635,1.019,2.117,2.132,2.117c0.731,0,1.387-0.273,2.015-0.639v0.285
		c0,0.145,0.117,0.262,0.262,0.262h0.6C234.056,239.102,234.173,238.983,234.173,238.84z M225.777,234.994h-3.469v-0.117
		c0-1.414,0.628-2.057,1.754-2.057c1.152,0,1.715,0.576,1.715,2.057V234.994z M226.939,235.582v-0.705
		c0-1.857-0.967-3.061-2.877-3.061c-1.87,0-2.902,1.188-2.902,3.061v1.176c0,2.436,1.463,3.141,2.968,3.141
		c0.877,0,1.597-0.08,2.342-0.223c0.209-0.039,0.261-0.131,0.261-0.301v-0.443c0-0.131-0.104-0.184-0.209-0.184h-0.065
		c-0.601,0.092-1.569,0.145-2.328,0.145c-1.204,0-1.819-0.576-1.819-2.135v-0.184h4.383
		C226.848,235.869,226.939,235.752,226.939,235.582 M219.811,232.586v-0.533c0-0.158-0.092-0.236-0.274-0.236
		c-0.589,0-1.19,0.17-1.844,0.627v-0.273c0-0.145-0.105-0.262-0.249-0.262h-0.613c-0.145,0-0.249,0.117-0.249,0.262v6.672
		c0,0.143,0.118,0.26,0.249,0.26h0.64c0.144,0,0.261-0.131,0.261-0.26v-5.48c0.654-0.395,1.203-0.551,1.806-0.551
		C219.719,232.809,219.811,232.731,219.811,232.586 M214.461,238.762v-0.471c0-0.131-0.105-0.195-0.223-0.195h-0.053
		c-0.575,0.064-0.98,0.092-1.622,0.092c-1.06,0-1.635-0.707-1.635-2.172v-1.021c0-1.479,0.589-2.172,1.635-2.172
		c0.642,0,1.047,0.027,1.622,0.092h0.053c0.117,0,0.223-0.064,0.223-0.195v-0.471c0-0.184-0.053-0.248-0.262-0.287
		c-0.433-0.078-1.033-0.145-1.636-0.145c-1.792,0-2.784,1.254-2.784,3.178v1.021c0,1.924,1.006,3.178,2.784,3.178
		c0.615,0,1.203-0.066,1.636-0.145C214.408,239.01,214.461,238.932,214.461,238.762 M202.742,234.994h-3.469v-0.117
		c0-1.414,0.629-2.057,1.755-2.057c1.15,0,1.714,0.576,1.714,2.057V234.994z M203.905,235.582v-0.705
		c0-1.857-0.968-3.061-2.877-3.061c-1.871,0-2.903,1.188-2.903,3.061v1.176c0,2.436,1.463,3.141,2.968,3.141
		c0.877,0,1.597-0.08,2.341-0.223c0.209-0.039,0.263-0.131,0.263-0.301v-0.443c0-0.131-0.105-0.184-0.209-0.184h-0.066
		c-0.6,0.092-1.569,0.145-2.328,0.145c-1.204,0-1.819-0.576-1.819-2.135v-0.184h4.384
		C203.813,235.869,203.905,235.752,203.905,235.582 M196.515,232.17c0-0.133-0.104-0.264-0.249-0.264h-0.706
		c-0.117,0-0.209,0.105-0.222,0.211l-1.086,5.963c-0.026,0.158-0.065,0.158-0.105,0.158c-0.038,0-0.077-0.039-0.104-0.158
		l-1.282-5.021c-0.079-0.287-0.249-0.393-0.522-0.393h-0.733c-0.275,0-0.445,0.105-0.523,0.393l-1.281,5.021
		c-0.026,0.119-0.065,0.158-0.105,0.158c-0.039,0-0.078,0-0.104-0.158l-1.086-5.963c-0.014-0.104-0.105-0.211-0.223-0.211h-0.707
		c-0.144,0-0.248,0.131-0.248,0.264v0.053l1.269,6.068c0.171,0.811,0.313,0.9,1.099,0.9c0.68,0,0.877-0.182,1.073-0.939l1.138-4.449
		c0.026-0.092,0.026-0.092,0.065-0.092c0.04,0,0.04,0,0.065,0.092l1.139,4.449c0.209,0.822,0.392,0.939,1.071,0.939
		c0.785,0,0.93-0.078,1.1-0.9l1.269-6.068V232.17z"/>
</g>
</svg>
